HIERARCHY
ROOT Hips
{
	OFFSET 0.000000 0.000000 0.000000
	CHANNELS 6 Xposition Yposition Zposition Xrotation Yrotation Zrotation
	JOINT LeftUpLeg_virtual
	{
		OFFSET 0.000000 0.000000 0.000000
		CHANNELS 3 Xrotation Yrotation Zrotation
		JOINT LeftUpLeg
		{
			OFFSET 11.394100 -6.187798 -0.413800
			CHANNELS 3 Xrotation Yrotation Zrotation
			JOINT LeftLeg
			{
				OFFSET 0.430247 -32.302673 3.732800
				CHANNELS 3 Xrotation Yrotation Zrotation
				JOINT LeftFoot
				{
					OFFSET -0.430247 -48.264931 -6.423300
					CHANNELS 3 Xrotation Yrotation Zrotation
					JOINT LeftToeBase
					{
						OFFSET 4.230900 -16.068199 23.438400
						CHANNELS 3 Xrotation Yrotation Zrotation
						JOINT LeftToe_End
						{
							OFFSET 4.510700 0.695400 19.974600
							CHANNELS 3 Xrotation Yrotation Zrotation
							End Site
							{
								OFFSET 0 0 0
							}
						}
					}
				}
			}
		}
	}
	JOINT RightUpLeg_virtual
	{
		OFFSET 0.000000 0.000000 0.000000
		CHANNELS 3 Xrotation Yrotation Zrotation
		JOINT RightUpLeg
		{
			OFFSET -11.333700 -6.187798 -0.413800
			CHANNELS 3 Xrotation Yrotation Zrotation
			JOINT RightLeg
			{
				OFFSET -0.430392 -32.302628 3.733000
				CHANNELS 3 Xrotation Yrotation Zrotation
				JOINT RightFoot
				{
					OFFSET 0.430392 -48.264973 -6.423500
					CHANNELS 3 Xrotation Yrotation Zrotation
					JOINT RightToeBase
					{
						OFFSET -4.230900 -16.068199 23.438400
						CHANNELS 3 Xrotation Yrotation Zrotation
						JOINT RightToe_End
						{
							OFFSET -4.510700 0.695400 19.974600
							CHANNELS 3 Xrotation Yrotation Zrotation
							End Site
							{
								OFFSET 0 0 0
							}
						}
					}
				}
			}
		}
	}
	JOINT Spine_virtual
	{
		OFFSET 0.000000 0.000000 0.000000
		CHANNELS 3 Xrotation Yrotation Zrotation
		JOINT Spine
		{
			OFFSET -0.002400 12.777504 0.315300
			CHANNELS 3 Xrotation Yrotation Zrotation
			JOINT Spine1
			{
				OFFSET -0.002067 5.816869 0.032633
				CHANNELS 3 Xrotation Yrotation Zrotation
				JOINT Spine1_split
				{
					OFFSET -0.002067 5.816869 0.032633
					CHANNELS 3 Xrotation Yrotation Zrotation
					JOINT Spine2
					{
						OFFSET -0.002067 5.816869 0.032633
						CHANNELS 3 Xrotation Yrotation Zrotation
						JOINT Neck_virtual
						{
							OFFSET 0.000000 0.000000 0.000000
							CHANNELS 3 Xrotation Yrotation Zrotation
							JOINT Neck
							{
								OFFSET -0.003700 21.199493 -0.826900
								CHANNELS 3 Xrotation Yrotation Zrotation
								JOINT Head
								{
									OFFSET 0.000000 20.442200 4.834800
									CHANNELS 3 Xrotation Yrotation Zrotation
									JOINT HeadTop_End
									{
										OFFSET 0.000000 34.668396 4.968400
										CHANNELS 3 Xrotation Yrotation Zrotation
										End Site
										{
											OFFSET 0 0 0
										}
									}
								}
							}
						}
						JOINT LeftShoulder_virtual
						{
							OFFSET 0.000000 0.000000 0.000000
							CHANNELS 3 Xrotation Yrotation Zrotation
							JOINT LeftShoulder
							{
								OFFSET 3.288150 8.794197 -1.372250
								CHANNELS 3 Xrotation Yrotation Zrotation
								JOINT LeftShoulder_split
								{
									OFFSET 3.288150 8.794197 -1.372250
									CHANNELS 3 Xrotation Yrotation Zrotation
									JOINT LeftArm
									{
										OFFSET 11.953299 -2.279007 -0.146200
										CHANNELS 3 Xrotation Yrotation Zrotation
										JOINT LeftForeArm
										{
											OFFSET 18.448900 0.000000 0.000000
											CHANNELS 3 Xrotation Yrotation Zrotation
											JOINT LeftHand
											{
												OFFSET 29.527798 0.000000 0.000000
												CHANNELS 3 Xrotation Yrotation Zrotation
												End Site
												{
													OFFSET 0 0 0
												}
											}
										}
									}
								}
							}
						}
						JOINT RightShoulder_virtual
						{
							OFFSET 0.000000 0.000000 0.000000
							CHANNELS 3 Xrotation Yrotation Zrotation
							JOINT RightShoulder
							{
								OFFSET -3.249400 8.794197 -1.372250
								CHANNELS 3 Xrotation Yrotation Zrotation
								JOINT RightShoulder_split
								{
									OFFSET -3.249400 8.794197 -1.372250
									CHANNELS 3 Xrotation Yrotation Zrotation
									JOINT RightArm
									{
										OFFSET -11.953299 -2.279007 -0.146200
										CHANNELS 3 Xrotation Yrotation Zrotation
										JOINT RightForeArm
										{
											OFFSET -18.448900 0.000000 0.000000
											CHANNELS 3 Xrotation Yrotation Zrotation
											JOINT RightHand
											{
												OFFSET -29.527802 0.000000 0.000000
												CHANNELS 3 Xrotation Yrotation Zrotation
												End Site
												{
													OFFSET 0 0 0
												}
											}
										}
									}
								}
							}
						}
					}
				}
			}
		}
	}
}
MOTION
Frames: 6
Frame Time: 0.03333333
16.921539 83.740967 -18.309698 0.000000 0.000000 0.000000 54.983235 -4.745011 15.022784 -99.379662 3.026193 14.594612 51.667997 -3.134332 1.596032 -4.289346 17.385034 -13.510508 -5.717276 -0.900761 -3.422963 0.000000 0.000000 0.000000 56.411700 -8.565807 16.096555 -52.534748 -1.576470 -12.236478 56.091907 7.878047 -4.567490 -11.910033 -23.676847 9.014684 -35.657658 9.267968 1.372222 0.000000 0.000000 0.000000 58.898900 -3.323771 15.214687 13.627864 0.842270 -0.072359 11.561576 0.178914 -2.973723 0.183133 0.162099 -0.011245 0.000000 0.000000 0.000000 19.311793 0.873955 -3.522253 -18.194033 -2.268769 0.439164 -71.008580 2.705149 19.748418 0.000000 0.000000 0.000000 18.343011 0.495518 -3.728824 8.348539 -3.659539 3.832712 0.135240 -3.994362 -1.246033 -29.392462 -65.653732 -14.433749 -16.702521 -11.264857 -17.135119 0.000000 0.000000 0.000000 20.975921 1.221901 -2.815278 10.966010 31.804496 -13.586932 -6.281280 -1.158543 5.333567 -49.481695 25.901015 19.580848 -15.150758 27.592134 14.239783 0.000000 0.000000 0.000000 
16.188566 85.695419 -17.547457 0.000000 0.000000 0.000000 52.932276 -4.894669 14.697847 -92.833425 3.655023 13.787561 48.095241 -3.374903 1.466597 -5.780093 17.913783 -12.469502 -3.313964 -0.854824 -3.514261 0.000000 0.000000 0.000000 54.070230 -8.490344 15.502064 -56.704982 -0.485213 -12.083005 59.770651 7.294362 -4.362428 -14.304822 -21.433448 5.704270 -32.113934 8.628244 1.387308 0.000000 0.000000 0.000000 56.481932 -3.469407 14.644247 13.440830 0.618004 0.237858 11.334747 0.207889 -2.708774 0.185139 0.187000 -0.001117 0.000000 0.000000 0.000000 19.387635 0.911942 -3.267396 -18.418628 -2.485969 0.504571 -69.044511 3.041668 18.943367 0.000000 0.000000 0.000000 18.189839 0.567746 -3.542595 8.153262 -4.214975 2.225488 0.153002 -4.047375 -0.904471 -28.729189 -63.389053 -18.314333 -16.186544 -11.343620 -16.288039 0.000000 0.000000 0.000000 20.991856 1.273717 -2.674065 10.201092 31.432705 -12.536569 -6.730455 -1.065520 5.198625 -47.391824 23.288814 23.319919 -14.531793 26.786663 13.317764 0.000000 0.000000 0.000000 
15.509114 87.461166 -16.813650 0.000000 0.000000 0.000000 50.537253 -5.275878 14.110766 -86.372134 4.109085 13.125480 44.897658 -3.655035 1.224124 -7.268357 18.369480 -11.756852 -0.938254 -0.804069 -3.414593 0.000000 0.000000 0.000000 51.565292 -8.798447 14.827137 -60.022685 0.062170 -12.207437 60.381816 6.866291 -3.987603 -14.443420 -19.456405 4.481396 -28.619995 8.012116 1.026376 0.000000 0.000000 0.000000 53.790738 -3.768962 13.876824 13.188637 0.501284 0.642022 11.158921 0.233580 -2.433208 0.216288 0.217210 0.003640 0.000000 0.000000 0.000000 19.371491 0.952363 -3.018883 -18.549844 -2.709926 0.526877 -66.763590 3.261767 18.011272 0.000000 0.000000 0.000000 18.016685 0.630089 -3.349466 7.925961 -4.764276 0.620257 0.133461 -4.070729 -0.544150 -28.252019 -61.171283 -22.584709 -15.420767 -10.806714 -15.205569 0.000000 0.000000 0.000000 20.946426 1.315774 -2.533515 9.449526 30.944718 -11.505807 -7.161030 -0.768464 5.083766 -44.933100 20.593485 26.521648 -14.109970 25.949231 12.631894 0.000000 0.000000 0.000000 
14.908719 89.054260 -16.073534 0.000000 0.000000 0.000000 47.961465 -5.790665 13.212296 -79.963811 4.488450 12.634945 41.784010 -3.927378 0.914803 -8.580896 18.712425 -11.172494 0.913500 -0.794103 -2.961548 0.000000 0.000000 0.000000 48.911306 -9.374007 13.907713 -61.866112 0.041520 -12.388163 57.629824 6.506168 -3.512175 -13.797930 -17.777121 4.516056 -23.678789 7.594744 0.090262 0.000000 0.000000 0.000000 50.892641 -4.213183 12.917097 12.851678 0.460175 1.133311 10.998660 0.240894 -2.140447 0.245960 0.245211 0.003745 0.000000 0.000000 0.000000 19.246073 0.983018 -2.768094 -18.544006 -2.922242 0.498464 -64.172400 3.319172 16.995280 0.000000 0.000000 0.000000 17.792189 0.670771 -3.130871 7.709918 -5.312659 -0.830377 0.123940 -4.125065 -0.236213 -27.825451 -59.017629 -26.872397 -14.604765 -9.962621 -14.057476 0.000000 0.000000 0.000000 20.812452 1.335498 -2.369476 8.714001 30.393529 -10.455769 -7.675537 -0.408836 5.068087 -42.178781 17.975262 29.137829 -13.856733 25.057966 12.132493 0.000000 0.000000 0.000000 
14.335625 90.528313 -15.356066 0.000000 0.000000 0.000000 45.316864 -6.551699 12.136363 -73.631133 4.794607 12.274121 38.631205 -4.173493 0.614992 -9.545486 18.992490 -10.652308 2.221474 -0.813284 -2.368774 0.000000 0.000000 0.000000 46.197156 -9.946284 12.701640 -61.974684 -0.504155 -12.502198 52.363003 5.943714 -2.980673 -13.285761 -16.467620 4.906609 -17.363046 7.394161 -1.319477 0.000000 0.000000 0.000000 47.873424 -4.685964 11.782200 12.377099 0.416214 1.677162 10.825077 0.203989 -1.838921 0.252063 0.239173 0.002171 0.000000 0.000000 0.000000 19.023209 0.985720 -2.516216 -18.359934 -3.090975 0.411202 -61.243117 3.171283 15.911049 0.000000 0.000000 0.000000 17.490632 0.676006 -2.898234 7.543694 -5.925774 -1.993894 -0.089665 -4.115845 -0.150562 -27.178332 -56.899769 -30.728734 -13.921896 -9.197722 -13.001227 0.000000 0.000000 0.000000 20.577780 1.317079 -2.179894 7.991636 29.777125 -9.346208 -8.206108 -0.121348 5.043791 -39.319155 15.550818 31.299113 -13.745903 24.175928 11.762089 0.000000 0.000000 0.000000 
13.705239 91.927101 -14.689615 0.000000 0.000000 0.000000 42.613987 -7.486369 11.022672 -67.358055 5.088629 12.024185 35.440680 -4.336932 0.350970 -10.201760 19.268643 -10.116374 3.028237 -0.866906 -1.827728 0.000000 0.000000 0.000000 43.389385 -10.390144 11.396865 -60.903444 -1.210458 -12.458510 45.868146 5.231672 -2.580136 -12.517216 -15.586729 5.882529 -11.271441 7.333905 -2.976396 0.000000 0.000000 0.000000 44.817570 -5.053509 10.563340 11.720816 0.311595 2.195753 10.626278 0.109933 -1.545690 0.229339 0.217386 -0.000474 0.000000 0.000000 0.000000 18.730390 0.951409 -2.273076 -17.967583 -3.195382 0.253899 -58.023611 2.835083 14.802178 0.000000 0.000000 0.000000 17.120407 0.640251 -2.663230 7.445695 -6.637270 -2.807833 -0.381203 -4.112675 -0.265167 -26.154126 -54.754085 -33.861059 -13.425642 -8.726603 -12.098385 0.000000 0.000000 0.000000 20.247934 1.251338 -1.971720 7.288033 29.071723 -8.224884 -8.675687 0.189097 5.059910 -36.532636 13.435957 33.104824 -13.728847 23.423258 11.469917 0.000000 0.000000 0.000000 
